<svg class="icon" viewBox="0 0 8000 8000" version="1.1" xmlns="http://www.w3.org/2000/svg" width="50" height="50"><g transform="translate(0,8000) scale(1,-1)" fill="#ffffff" stroke="none"><path d="M2512 6230 c-119 -31 -206 -83 -303 -180 -69 -68 -94 -101 -127 -170 -77 -158 -72 -27 -72 -1745 0 -1716 -4 -1608 71 -1763 56 -117 179 -242 289 -295 148 -72 50 -68 1515 -67 1132 0 1328 3 1383 15 102 24 215 88 296 170 121 120 179 245 197 425 12 120 10 2852 -2 3008 -7 86 -16 131 -38 188 -63 162 -180 293 -325 365 -147 72 -74 69 -1516 68 -1242 0 -1298 -1 -1368 -19z m2603 -163 c112 -3 125 -5 190 -37 85 -41 200 -150 234 -225 53 -112 51 -39 51 -1681 0 -1674 4 -1568 -57 -1687 -52 -104 -170 -200 -289 -236 -69 -21 -73 -21 -1379 -19 l-1310 3 -58 23 c-126 51 -234 163 -288 299 l-24 58 -3 1540 c-2 1515 -2 1541 18 1606 44 145 135 254 265 316 64 30 92 37 163 42 90 6 2275 5 2487 -2z"/><path d="M4504 5660 c-49 -20 -54 -41 -54 -242 l0 -188 -163 0 c-158 0 -164 -1 -185 -23 -32 -34 -29 -82 7 -118 l29 -29 156 0 155 0 3 -166 c3 -160 4 -166 27 -185 33 -27 92 -25 119 4 21 22 22 33 22 185 l0 162 156 0 156 0 29 29 c35 35 38 77 8 114 -20 26 -21 27 -182 29 l-162 3 -3 192 -2 192 -31 25 c-32 27 -50 30 -85 16z"/><path d="M3203 5413 c-24 -21 -39 -48 -57 -108 -14 -44 -52 -165 -85 -270 -33 -104 -76 -244 -96 -310 -21 -66 -65 -208 -100 -315 -84 -263 -82 -251 -47 -291 35 -39 88 -45 122 -14 17 15 66 153 107 298 4 16 24 17 275 15 l271 -3 48 -150 c52 -163 67 -185 126 -185 46 0 83 37 83 83 0 18 -31 130 -69 248 -38 118 -106 329 -151 469 -131 410 -152 473 -167 502 -21 42 -61 58 -150 58 -72 0 -82 -3 -110 -27z m226 -476 c57 -177 106 -328 108 -334 4 -10 -43 -13 -211 -13 -119 0 -216 3 -216 7 0 9 38 134 110 363 32 102 66 211 75 243 9 31 19 57 23 57 4 0 54 -145 111 -323z"/><path d="M4134 4280 c-57 -23 -71 -100 -28 -144 l27 -26 394 0 c263 0 401 4 415 11 32 17 50 71 36 109 -20 58 -35 60 -450 59 -205 0 -383 -4 -394 -9z"/><path d="M2843 3620 c-49 -20 -59 -101 -17 -141 l26 -24 1016 -3 c724 -2 1028 0 1055 8 52 15 74 63 53 114 -8 19 -23 39 -34 45 -25 14 -2066 14 -2099 1z"/><path d="M2825 3065 c-18 -17 -25 -35 -25 -62 1 -42 13 -63 47 -81 28 -15 2048 -17 2087 -2 57 21 68 111 18 150 -24 20 -45 20 -1064 20 l-1039 0 -24 -25z"/></g></svg>
