<svg t="1738838855540" class="icon" viewBox="0 0 1024 1024" version="1.1" xmlns="http://www.w3.org/2000/svg" p-id="15859" width="200" height="200"><path d="M433.92 844.16V367.36a39.04 39.04 0 0 0-39.04-39.04 39.04 39.04 0 0 0-39.04 39.04v476.8a39.04 39.04 0 1 0 78.72 0z m-70.4-768h296.96a39.68 39.68 0 0 0 39.04-39.04 39.04 39.04 0 0 0-39.04-37.12H363.52a39.04 39.04 0 1 0 0 78.08z m484.48 187.52a39.04 39.04 0 0 0-38.4 31.36v617.6a31.36 31.36 0 0 1-30.72 31.36H246.4a31.36 31.36 0 0 1-31.36-31.36V296.96a39.04 39.04 0 0 0-76.8 0v679.68a46.72 46.72 0 0 0 46.72 47.36h655.36a46.72 46.72 0 0 0 46.72-47.36V296.96a39.04 39.04 0 0 0-39.04-31.36z m-179.84 576V367.36a39.04 39.04 0 0 0-78.08 0v476.8a39.04 39.04 0 1 0 78.08 0zM960 128H64a39.04 39.04 0 0 0 0 75.52h896A39.04 39.04 0 0 0 960 128z" fill="#D43F39" p-id="15860"></path></svg>