<svg t="1734056226751" class="icon" viewBox="0 0 1107 1024" version="1.1" xmlns="http://www.w3.org/2000/svg" p-id="1782" width="200" height="200"><path d="M459.339644 1024H133.220383C59.764939 1024 0 967.671194 0 898.440681V125.548514C0 56.318001 59.764939 0 133.220383 0H785.448099c73.477054 0 133.220383 56.318001 133.220383 125.548514v241.934006a43.437906 43.437906 0 1 1-86.875812 0v-241.934006c0-21.319151-20.789684-38.661897-46.344571-38.661897H133.220383c-25.544082 0-46.333766 17.288719-46.333766 38.661897v772.892167c0 21.329957 20.789684 38.672703 46.333766 38.672702H459.339644a43.448711 43.448711 0 0 1 0 86.886617z" fill="#666767" p-id="1783"></path><path d="M87.729442 977.255627a43.448711 43.448711 0 0 1-18.228793-82.899406L334.461068 772.049342a31.335803 31.335803 0 0 0 18.131543-28.342693V251.896631A31.03325 31.03325 0 0 0 332.807834 222.840778L71.813015 120.28626a43.448711 43.448711 0 0 1 31.778826-80.867981l260.973208 102.554517a118.114365 118.114365 0 0 1 74.914179 109.923835v491.810018a118.48175 118.48175 0 0 1-68.603797 107.233277L105.893402 973.246805a43.297435 43.297435 0 0 1-18.16396 4.008822zM833.024492 551.358849A66.691232 66.691232 0 1 1 766.333259 618.071692a66.756065 66.756065 0 0 1 66.691233-66.680427m0-86.886617A153.577849 153.577849 0 1 0 986.591535 618.071692a153.567043 153.567043 0 0 0-153.567043-153.59946z" fill="#666767" p-id="1784"></path><path d="M1063.710026 1019.537349a43.437906 43.437906 0 0 1-43.437906-43.448711c0-106.801059-86.897422-193.687676-193.698481-193.687676s-193.687676 86.886617-193.687677 193.687676a43.437906 43.437906 0 1 1-86.875811 0 280.574293 280.574293 0 0 1 561.13778 0 43.437906 43.437906 0 0 1-43.437905 43.448711z" fill="#666767" p-id="1785"></path></svg>