<svg t="1735529152606" class="icon" viewBox="0 0 1024 1024" version="1.1" xmlns="http://www.w3.org/2000/svg" p-id="7567" width="200" height="200"><path d="M842.24 628.3264c0 34.4576 27.8016 63.2832 61.7472 63.2832 34.5088 0 61.7472-28.8256 61.7472-63.2832V384.4096c0-34.9696-27.2384-62.7712-61.7472-62.7712-33.9456 0-61.696 27.8016-61.696 62.7712v243.9168z m-220.672-450.7136c0-16.4864 13.824-29.8496 30.3104-29.8496 16.9984 0 30.8736 13.312 30.8736 29.8496a30.5152 30.5152 0 0 1-30.8736 30.3616 30.4128 30.4128 0 0 1-30.3616-30.3616z m-234.6496 0c0-16.4864 13.3632-29.8496 29.8496-29.8496a30.1056 30.1056 0 1 1-29.8496 29.8496zM259.84 770.304c0 26.7776 21.0944 48.384 48.3328 48.384h54.5792v135.8336c0 33.9456 26.7264 62.7712 61.696 62.7712 33.4848 0 61.7472-28.8256 61.7472-62.7712V818.688h95.744v135.8336c0 33.9456 26.2144 62.7712 61.184 62.7712 34.5088 0 61.7472-28.8256 61.7472-62.7712V818.688h54.5792a47.9744 47.9744 0 0 0 48.3328-48.384V323.1744H259.84v447.1296zM806.7584 284.16c-8.192-84.3776-63.7952-154.88-144.0768-191.9488l50.432-73.5744c3.328-4.8128 2.56-10.752-1.536-12.8512-4.096-2.56-8.704-1.024-12.3392 3.072L646.2464 84.992A330.5472 330.5472 0 0 0 532.48 63.8976c-40.6528 0-79.2576 8.192-114.2272 21.0944L366.336 8.8064c-3.584-4.096-8.192-6.656-12.3392-3.072-4.096 2.56-5.4272 8.0384-2.048 12.8512L402.8416 92.16c-80.2304 38.0928-136.8576 107.008-144.0256 191.9488h547.9424zM99.328 628.3264c0 34.4576 26.7776 63.2832 61.7472 63.2832 33.4336 0 61.7472-28.8256 61.7472-63.2832V384.4096a62.464 62.464 0 0 0-61.7472-62.7712c-34.9696 0-61.7472 27.8016-61.7472 62.7712v243.9168z" fill="#1391EB" p-id="7568"></path></svg>