<svg t="1735529228149" class="icon" viewBox="0 0 1024 1024" version="1.1" xmlns="http://www.w3.org/2000/svg" p-id="8703" width="200" height="200"><path d="M859.697957 875.870288H213.719546c-41.984207 0-76.106352-34.17638-76.106352-76.107375V153.840784c0-14.761192 11.980869-26.743084 26.742061-26.743084 14.761192 0 26.741038 11.980869 26.741038 26.743084v645.923152c0.053212 12.515035 10.161431 22.623253 22.623253 22.623253h645.925199c14.760169 0 26.742061 11.980869 26.742061 26.742061 0 14.761192-11.92561 26.741038-26.688849 26.741038zM512.052189 528.225543zM795.035238 554.968627c-14.760169 0-26.741038-11.980869-26.741037-26.743084V394.516262H634.583896c-14.760169 0-26.742061-11.980869-26.742061-26.741038 0-14.760169 11.980869-26.743084 26.742061-26.743084h187.194426v187.194426c-0.001023 14.760169-11.926634 26.742061-26.743084 26.742061z" p-id="8704" fill="#1296db"></path><path d="M565.53631 619.523899L405.085992 459.071534 263.567861 600.589664c-10.428513 10.429537-27.383674 10.429537-37.812187 0-10.429537-10.429537-10.429537-27.383674 0-37.81321l179.384553-179.384554 160.451342 160.450319 195.000206-195.001229c10.429537-10.428513 27.383674-10.428513 37.81321 0 10.429537 10.429537 10.429537 27.383674 0 37.81321L565.53631 619.523899z" p-id="8705" fill="#1296db"></path></svg>