<svg t="1735529311140" class="icon" viewBox="0 0 1024 1024" version="1.1" xmlns="http://www.w3.org/2000/svg" p-id="9735" width="200" height="200"><path d="M917.886817 827.971657L279.134925 193.762311a48.046163 48.046163 0 0 0-67.497579-0.640615l-22.712731 22.363305a47.289071 47.289071 0 0 0 0.640615 67.031676l638.751892 634.209346a48.1044 48.1044 0 0 0 67.555817 0.640615l22.654493-22.538018a47.230834 47.230834 0 0 0-0.640615-66.856963z m-493.856313-375.051257l-192.767028-191.485797 31.506635-31.273684 192.767028 191.427559z m-283.734429 571.0796L174.132221 173.379091a40.766441 40.766441 0 0 1-56.956542-0.52414l-10.773988-10.71575a39.834637 39.834637 0 0 1-0.582378-56.548878 40.766441 40.766441 0 0 1 56.956542 0.582378l10.773988 10.657513a39.776399 39.776399 0 0 1 0.582378 56.548877zM84.096624 394.274963a39.659923 39.659923 0 0 1-28.361795 11.647555H40.651245A41.115868 41.115868 0 0 1 0.00128 365.156077a39.310497 39.310497 0 0 1 39.834637-39.601686h15.083583a41.115868 41.115868 0 0 1 40.766441 40.358777 39.077546 39.077546 0 0 1-11.589317 28.361795z m94.869332 222.468292l-10.599275 10.482799a40.766441 40.766441 0 0 1-56.956542-0.52414 39.834637 39.834637 0 0 1-0.757091-56.548877l10.599275-10.482799a40.766441 40.766441 0 0 1 56.956542 0.52414 39.834637 39.834637 0 0 1 0.698853 56.548877z m224.390138 108.78816a39.48521 39.48521 0 0 1-28.303557 11.647554 41.115868 41.115868 0 0 1-40.766441-40.358776v-15.025346a39.135783 39.135783 0 0 1 39.834636-39.659923 41.115868 41.115868 0 0 1 40.766441 40.358776v15.025346a39.019308 39.019308 0 0 1-11.589317 28.012369z m327.296283-325.665626a39.194021 39.194021 0 0 1-28.361795 11.647555H687.206999a40.766441 40.766441 0 0 1-40.766441-40.358777 39.194021 39.194021 0 0 1 39.834636-39.543447h15.083583a40.766441 40.766441 0 0 1 40.766441 40.358776 38.669881 38.669881 0 0 1-11.531079 27.895893z m-99.295402-232.951091l-10.599275 10.541037a40.766441 40.766441 0 0 1-56.956542-0.582378 39.776399 39.776399 0 0 1-0.582378-56.548877l10.599275-10.541037a40.766441 40.766441 0 0 1 56.956542 0.582378 39.776399 39.776399 0 0 1 0.52414 56.374164zM396.425799 83.518208a39.543448 39.543448 0 0 1-28.420033 11.647554 41.115868 41.115868 0 0 1-40.766441-40.417014V39.723402A39.194021 39.194021 0 0 1 367.190437 0.005241 41.115868 41.115868 0 0 1 407.665689 40.364018v15.025345a38.902832 38.902832 0 0 1-11.23989 28.128845z" fill="#1296db" p-id="9736"></path></svg>