<svg t="1735529353024" class="icon" viewBox="0 0 1280 1024" version="1.1" xmlns="http://www.w3.org/2000/svg" p-id="10873" width="200" height="200"><path d="M432 576h-96c-17.68 0-32 14.32-32 32v384c0 17.68 14.32 32 32 32h96c17.68 0 32-14.32 32-32V608c0-17.68-14.32-32-32-32zM176 768H80c-17.68 0-32 14.32-32 32v192c0 17.68 14.32 32 32 32h96c17.68 0 32-14.32 32-32v-192c0-17.68-14.32-32-32-32z m512-384h-96c-17.68 0-32 14.32-32 32v576c0 17.68 14.32 32 32 32h96c17.68 0 32-14.32 32-32V416c0-17.68-14.32-32-32-32z m256-192h-96c-17.68 0-32 14.32-32 32v768c0 17.68 14.32 32 32 32h96c17.68 0 32-14.32 32-32V224c0-17.68-14.32-32-32-32zM1200 0h-96c-17.68 0-32 14.32-32 32v960c0 17.68 14.32 32 32 32h96c17.68 0 32-14.32 32-32V32c0-17.68-14.32-32-32-32z" p-id="10874" fill="#1296db"></path></svg>