<svg t="1768447641263" class="icon" viewBox="0 0 1024 1024" version="1.1" xmlns="http://www.w3.org/2000/svg" p-id="4685" width="50" height="50"><path d="M515.5 544.5l327.6-186.6-327.6-175-328.5 175 328.5 186.6z m259-185.6l-259 141.8-256.6-141.8 256.7-132.4 258.9 132.4z m-6.9 100.8l-40.3 23.4 40.3 25.6L512 650.6 263 508.7l41.9-28.4-41.9-22-75.4 50.3L512 696.1l327.6-187.5-72-48.9z m3.2 146.2l-37.1 24.3 33.5 22L512 792.7 263.4 652.3l36.8-22-41-23.9-71.6 45.8L512 838l327.6-185.7-68.8-46.4z" fill="#ffffff" p-id="4686"></path></svg>